<?xml version="1.0" encoding="utf-8"?>
<!-- Generator: Adobe Illustrator 19.1.0, SVG Export Plug-In . SVG Version: 6.00 Build 0)  -->
<svg version="1.1" id="Layer_1" xmlns="http://www.w3.org/2000/svg" xmlns:xlink="http://www.w3.org/1999/xlink" x="0px" y="0px"
	 width="512px" height="512px" viewBox="0 0 512 512" style="enable-background:new 0 0 512 512;" xml:space="preserve">
<style type="text/css">
	.st0{fill:#38474B;}
</style>
<g>
	<path class="st0" d="M148.6,47.7c9.4,1.1,18.8,1.5,28.1,1.8c0.7,0,1.5-0.3,2.1-0.8l0.1-0.1c8.7-8.4,17.2-17,25.7-25.6l22.9,52.3
		c0.5,1.1,1.4,2,2.6,2.4c2.3,0.9,4.9-0.3,5.8-2.7l0-0.1c6.9-18.5,13.6-37.1,20.2-55.8c6.7,18.6,13.4,37.2,20.3,55.7l0,0.1
		c0.4,1.1,1.2,2,2.4,2.5c2.2,1,4.9,0,5.8-2.3l23-52.4l25.9,25.6l0.1,0.1c0.5,0.5,1.2,0.8,1.9,0.8c9.4-0.2,18.8-0.5,28.1-1.4
		c0.7-0.1,1.2-0.6,1.3-1.3c0.1-0.8-0.5-1.4-1.3-1.5c-9-0.8-17.9-1.1-26.9-1.4l-27.8-29.5c-0.3-0.3-0.6-0.6-1-0.8
		c-1.7-0.8-3.8-0.1-4.6,1.7l0,0.1l-22,46.4c-6.8-19.6-13.6-39.1-20.5-58.6c-0.5-1.3-1.5-2.5-3-3c-2.6-0.9-5.4,0.4-6.3,3
		c-6.9,19.5-13.8,38.9-20.5,58.4l-21.9-46.2l0-0.1c-0.2-0.4-0.4-0.7-0.8-1c-1.4-1.4-3.7-1.3-5.1,0.1c-9.3,9.7-18.7,19.5-27.8,29.4
		c-8.9,0.2-17.9,0.7-26.8,1.7c-0.6,0.1-1,0.5-1.1,1.1C147.4,47,147.9,47.6,148.6,47.7z"/>
	<path class="st0" d="M452.7,251H427v-31.1c0-9.8-5.6-19-13.9-24.1l-44.8-27.2l42-81.9c2.2,0.6,4.4,0.9,6.8,0.9
		c15.7,0,28.5-12.8,28.5-28.5c0-15.7-12.8-28.5-28.5-28.5c-15.7,0-28.5,12.8-28.5,28.5c0,8.8,4.1,16.6,10.4,21.8l-41.6,81
		l-87.1-53.2c-8.8-5.4-20.5-5.4-29.4,0L155.1,161l-42.5-80.5c5.9-5.2,9.8-12.8,9.8-21.3c0-15.7-12.8-28.5-28.5-28.5
		c-15.7,0-28.5,12.8-28.5,28.5c0,15.7,12.8,28.5,28.5,28.5c2.6,0,5.2-0.5,7.6-1.2l42.8,81.1l-46,28.3C89.8,201,85,210.2,85,220v31
		H58.8c-10.1,0-18.8,9.4-18.8,19.5v89.7c0,10.1,8.7,18.8,18.8,18.8H85v17.3c0,9.8,4.8,19,13.2,24.1l142.8,87.1
		c4.4,2.7,9.4,4.1,14.6,4.1c5.2,0,10.2-1.4,14.7-4.1l142.9-87.1c8.3-5.1,13.9-14.3,13.9-24.1V379h25.7c10.1,0,19.3-8.7,19.3-18.8
		v-89.7C472,260.4,462.7,251,452.7,251z M417.1,40.1c10.5,0,19,8.5,19,19c0,10.5-8.5,19-19,19c-10.5,0-19-8.5-19-19
		C398.1,48.7,406.6,40.1,417.1,40.1z M74.8,59.2c0-10.5,8.5-19,19-19c10.5,0,19,8.5,19,19c0,10.5-8.5,19-19,19
		C83.3,78.2,74.8,69.7,74.8,59.2z M58.8,366c-3.1,0-5.8-2.7-5.8-7.9v-89.7c0-1,2.7-4.4,5.8-4.4H85v102H58.8z M414,396.3
		c0,5.4-3.3,10.4-7.8,13.2l-142.6,87.1c-4.9,3-11.3,3-16.2,0l-142.4-87.1c-4.6-2.8-6.9-7.9-6.9-13.2V220c0-5.4,2.3-10.5,6.9-13.2
		l142.7-87.1c2.4-1.5,5.1-2.3,8-2.3c2.9,0,5.6,0.8,8,2.3l142.6,87.1c4.6,2.8,7.8,7.9,7.8,13.2V396.3z M459,360.2
		c0,3.1-3.2,5.8-6.3,5.8H427V264h25.7c3.1,0,6.3,3.4,6.3,6.5V360.2z"/>
	<path class="st0" d="M332.2,277H180.1c-24.5,0-44.4,20-44.4,44.5s19.9,44.5,44.4,44.5h152.1c24.5,0,44.4-20,44.4-44.5
		S356.7,277,332.2,277z M332.2,353H180.1c-17.5,0-31.7-14.5-31.7-32s14.2-32,31.7-32h152.1c17.5,0,31.7,14.5,31.7,32
		S349.7,353,332.2,353z"/>
	<path class="st0" d="M286.9,417h-63.4c-3.5,0-6.3,3-6.3,6.5s2.8,6.5,6.3,6.5h63.4c3.5,0,6.3-3,6.3-6.5S290.4,417,286.9,417z"/>
</g>
</svg>
