<svg id="Layer_1" data-name="Layer 1" xmlns="http://www.w3.org/2000/svg" viewBox="0 0 227.66 57.86"><defs><style>.cls-1{fill:#ff7f0b;}.cls-2{fill:#726860;}</style></defs><title>robonkey-logo</title><path class="cls-1" d="M33.75,0a29.94,29.94,0,0,0-30,29.72v8H3.88A3.59,3.59,0,0,0,.77,38.9a3.5,3.5,0,0,0-.6,3.26L4.1,55l0.58,1.66H63.75v-27A29.94,29.94,0,0,0,33.75,0Zm27,53.68H6.8L2.88,41a1.06,1.06,0,0,1,1.23-1.34H46.35a4.81,4.81,0,0,0,5.06,4.61,5.07,5.07,0,1,0-5-5.37L6.75,37V29.72a27.09,27.09,0,0,1,27.07-27h0.1a26.87,26.87,0,0,1,26.82,27v24ZM47.58,39.26a3.83,3.83,0,1,1,3.83,3.83A3.83,3.83,0,0,1,47.58,39.26Z"/><path class="cls-1" d="M51.41,42.53a3.26,3.26,0,1,0-3.26-3.26A3.27,3.27,0,0,0,51.41,42.53Zm0-4.33a1.07,1.07,0,1,1-1.07,1.07A1.07,1.07,0,0,1,51.41,38.19Z"/><path class="cls-1" d="M27.79,14.21A10.63,10.63,0,0,0,19.22,22a5.36,5.36,0,1,0,1.43,8.68,10.63,10.63,0,0,0,8.86,4.76A10.68,10.68,0,1,0,27.79,14.21Zm8.7,16.32a9,9,0,0,1-6,3.73,8.77,8.77,0,0,1-1.5.1,8.94,8.94,0,0,1-7.44-4.41L20.76,28.6l-1.11,1.08a3.91,3.91,0,0,1-2.13,1.07A3.75,3.75,0,0,1,14.6,30a4.14,4.14,0,0,1-1.53-2.72,4.26,4.26,0,0,1,.75-3.06,3.89,3.89,0,0,1,2.59-1.61,3.71,3.71,0,0,1,.64,0,3.8,3.8,0,0,1,1.69.44L20.1,23.7l0.42-1.53A9.27,9.27,0,0,1,28,15.38a8.7,8.7,0,0,1,1.49-.1,9.19,9.19,0,0,1,8.78,8.18A9.84,9.84,0,0,1,36.49,30.54Z"/><path class="cls-1" d="M118.26,46.46a5,5,0,0,0-1.46-1,7.1,7.1,0,0,0-1.62-.55,4.39,4.39,0,0,0,1.61-.84,4.57,4.57,0,0,0,1-1.27,5.55,5.55,0,0,0,.58-1.58,8.61,8.61,0,0,0,.18-1.75,6.8,6.8,0,0,0-.53-2.81,4.68,4.68,0,0,0-1.53-1.9,6.56,6.56,0,0,0-2.41-.88,14.09,14.09,0,0,0-3.15-.16h-6.21v23h7.14a12,12,0,0,0,2.93-.31,7.22,7.22,0,0,0,2.49-1.11,5.81,5.81,0,0,0,1.74-2,6,6,0,0,0,.66-2.9,6,6,0,0,0-.4-2.3A5.08,5.08,0,0,0,118.26,46.46Zm-9.51-9.78h2.34a4.14,4.14,0,0,1,2.6.86,2.89,2.89,0,0,1,1,2.38,4.22,4.22,0,0,1-.79,2.55,3.1,3.1,0,0,1-2.43,1.2h-2.69v-7Zm6.71,14.66a2.78,2.78,0,0,1-.9,1,4.82,4.82,0,0,1-1.35.85,6.39,6.39,0,0,1-1.64.45h-2.82v-7h2.47a8.74,8.74,0,0,1,1.69.12,4.48,4.48,0,0,1,1.46.53,3,3,0,0,1,1,1,2.91,2.91,0,0,1,.39,1.55A3.15,3.15,0,0,1,115.46,51.35Z"/><path class="cls-1" d="M163.75,47.51l0,1.09-0.67-.9c-0.15-.19-0.51-0.54-1-1s-1.15-1.09-1.9-1.78l-2.48-2.31q-1.35-1.27-2.77-2.57l-2.78-2.56q-1.37-1.25-2.49-2.31c-0.75-.71-1.38-1.31-1.89-1.82a4,4,0,0,1-1-1V56.68h4V42.27l-0.14-1c0.11,0.15.21,0.32,0.36,0.5a2.41,2.41,0,0,1,.25.34,13.67,13.67,0,0,0,1,1L154.06,45l2.46,2.36,2.76,2.62,2.78,2.64,2.49,2.38c0.75,0.72,1.54,1.33,2,1.85a6.67,6.67,0,0,1,1.15,1.06V33.68h-4V47.51Z"/><path class="cls-1" d="M184.93,50.19L182.54,47q-1.21-1.64-2.56-3.38c1.59-1.67,3.17-3.2,4.76-4.93s3.18-4,4.79-5h-5a26.87,26.87,0,0,0-4.2,4.19c-1.34,1.5-2.74,2.86-4.2,4.25a2.05,2.05,0,0,1-.34.39,2.92,2.92,0,0,0-.34.38c0-.19.13-0.4,0.15-0.59s0.12-.39.12-0.56V33.68h-5v23h5V47.57a1.51,1.51,0,0,1,.59-0.63c0.21-.2.4-0.43,0.63-0.69,0.73,0.94,1.4,1.85,2.05,2.72L181,51.54c0.64,0.85,1.28,1.66,1.92,2.52s1.33,1.63,2.08,2.63h4.89c-0.88-1-1.72-2.24-2.52-3.32S185.73,51.25,184.93,50.19Z"/><polygon class="cls-1" points="194.75 46.68 204.75 46.68 204.75 43.68 194.75 43.68 194.75 36.68 205.75 36.68 205.75 33.68 190.75 33.68 190.75 56.68 206.75 56.68 206.75 52.68 194.75 52.68 194.75 46.68"/><path class="cls-1" d="M223.19,33.68a1.76,1.76,0,0,0-.48.74c-0.24.46-.52,0.93-0.85,1.58s-0.7,1.33-1.09,2.11l-1.19,2.32-1.14,2.24-1,1.88c-0.06.15-.13,0.32-0.19,0.53a3.85,3.85,0,0,1-.22.56l-0.35-1.09-1-1.88-1.16-2.25-1.22-2.35-1.12-2.15c-0.34-.65-0.64-1-0.88-1.49a1.83,1.83,0,0,0-.5-0.74h-4.47a3.75,3.75,0,0,1,.8,1.25c0.43,0.8,1,1.68,1.58,2.8s1.27,2.28,2,3.56,1.34,2.45,2,3.58,1,2.08,1.42,2.88a6,6,0,0,1,.65,1.42v7.51h4V49.18l8.91-15.49h-4.47Z"/><path class="cls-1" d="M96.27,34.95a11.9,11.9,0,0,0-11.87,0,11.77,11.77,0,0,0-4.3,4.3,11.9,11.9,0,0,0,0,11.87,11.77,11.77,0,0,0,4.3,4.3,11.9,11.9,0,0,0,11.87,0,11.77,11.77,0,0,0,4.3-4.3,11.9,11.9,0,0,0,0-11.87A11.77,11.77,0,0,0,96.27,34.95Zm2.48,11.48a0.41,0.41,0,0,1-.08.25,0.33,0.33,0,0,1-.21.14l-2,.31a7.05,7.05,0,0,1-.43,1q0.38,0.55,1.18,1.52a0.43,0.43,0,0,1,.11.27,0.37,0.37,0,0,1-.1.25,11.17,11.17,0,0,1-1.09,1.19,2.56,2.56,0,0,1-1,.78,0.54,0.54,0,0,1-.29-0.1l-1.52-1.19a6.26,6.26,0,0,1-1,.42A18.92,18.92,0,0,1,92,53.34a0.4,0.4,0,0,1-.4.34H89.12a0.45,0.45,0,0,1-.27-0.13,0.36,0.36,0,0,1-.13-0.25l-0.31-2a6.79,6.79,0,0,1-1-.41L85.88,52a0.39,0.39,0,0,1-.27.1A0.38,0.38,0,0,1,85.33,52a14.49,14.49,0,0,1-1.81-1.85,0.43,0.43,0,0,1-.08-0.25,0.42,0.42,0,0,1,.09-0.25q0.16-.23.56-0.73t0.59-.77a5.44,5.44,0,0,1-.45-1.09l-2-.3a0.56,0.56,0,0,1-.47-0.4V43.94a0.58,0.58,0,0,1,.16-0.25,0.41,0.41,0,0,1,.25-0.14l2.06-.31a5.49,5.49,0,0,1,.44-1c-0.29-.42-0.68-0.92-1.17-1.52a0.41,0.41,0,0,1-.11-0.26,0.46,0.46,0,0,1,.1-0.25A10.94,10.94,0,0,1,84.57,39a2.59,2.59,0,0,1,1-.79,0.47,0.47,0,0,1,.29.11l1.52,1.17a6.27,6.27,0,0,1,1-.42A18.91,18.91,0,0,1,88.72,37a0.4,0.4,0,0,1,.4-0.34h2.44a0.45,0.45,0,0,1,.27.13,0.36,0.36,0,0,1,.13.25l0.31,2a6.8,6.8,0,0,1,1,.41l1.56-1.17a0.36,0.36,0,0,1,.26-0.1,0.42,0.42,0,0,1,.27.11,15,15,0,0,1,1.81,1.87,0.35,0.35,0,0,1,.08.24,0.42,0.42,0,0,1-.09.25q-0.16.23-.56,0.73T96,42.21a6.61,6.61,0,0,1,.45,1.08l2,0.31a0.32,0.32,0,0,1,.22.14,0.41,0.41,0,0,1,.08.26v2.44Z"/><path class="cls-1" d="M138.68,34.95a11.9,11.9,0,0,0-11.87,0,11.77,11.77,0,0,0-4.3,4.3,11.9,11.9,0,0,0,0,11.87,11.77,11.77,0,0,0,4.3,4.3,11.9,11.9,0,0,0,11.87,0,11.77,11.77,0,0,0,4.3-4.3,11.9,11.9,0,0,0,0-11.87A11.77,11.77,0,0,0,138.68,34.95Zm2.07,11.48a0.55,0.55,0,0,1,.13.25c-0.06.08,0,.13-0.11,0.14l-2,.31a7.24,7.24,0,0,1-.4,1c0.26,0.37.66,0.87,1.19,1.52a0.43,0.43,0,0,1,.12.27,0.36,0.36,0,0,1-.1.25,11.11,11.11,0,0,1-1.09,1.19,2.56,2.56,0,0,1-1,.78,0.54,0.54,0,0,1-.29-0.1l-1.52-1.19a6.26,6.26,0,0,1-1,.42,18.92,18.92,0,0,1-.32,2.08,0.4,0.4,0,0,1-.39.34h-2.44a0.45,0.45,0,0,1-.27-0.13,0.36,0.36,0,0,1-.13-0.25l-0.31-2a6.79,6.79,0,0,1-1-.41L128.29,52a0.39,0.39,0,0,1-.27.1,0.38,0.38,0,0,1-.27-0.12,14.49,14.49,0,0,1-1.81-1.85,0.43,0.43,0,0,1-.08-0.25,0.42,0.42,0,0,1,.09-0.25q0.16-.23.56-0.73t0.59-.77a5.44,5.44,0,0,1-.45-1.09l-2-.3a1.35,1.35,0,0,1-.51-0.14,1.39,1.39,0,0,1-.37-0.26V43.94a1.69,1.69,0,0,1,.37-0.25,0.7,0.7,0,0,1,.35-0.14l2.11-.31a5.64,5.64,0,0,1,.46-1c-0.29-.42-0.67-0.92-1.16-1.52a0.4,0.4,0,0,1-.1-0.26,0.47,0.47,0,0,1,.1-0.25A11,11,0,0,1,127,39a2.59,2.59,0,0,1,1-.79,0.47,0.47,0,0,1,.29.11l1.52,1.17a6.27,6.27,0,0,1,1-.42,18.91,18.91,0,0,1,.32-2.08,0.4,0.4,0,0,1,.4-0.34H134a0.45,0.45,0,0,1,.27.13,0.36,0.36,0,0,1,.13.25l0.31,2a6.8,6.8,0,0,1,1,.41l1.56-1.17a0.36,0.36,0,0,1,.26-0.1,0.42,0.42,0,0,1,.27.11,15,15,0,0,1,1.81,1.87,0.35,0.35,0,0,1,.08.24,0.42,0.42,0,0,1-.09.25q-0.16.23-.56,0.73t-0.59.77a6.61,6.61,0,0,1,.45,1.08l2,0.31c0.1,0,0,.06,0,0.14a0.62,0.62,0,0,1-.13.26v2.44Z"/><path class="cls-2" d="M124.33,24a3,3,0,0,1,.24-1.19,3.15,3.15,0,0,1,.65-1,3,3,0,0,1,1-.65,2.91,2.91,0,0,1,1.18-.24,2.83,2.83,0,0,1,.85.13,2.78,2.78,0,0,1,.73.35,2.86,2.86,0,0,1,.58.52,2.31,2.31,0,0,1,.38.62q0-.37,0-0.75t0-.74h0.45v5.81H129.9V25.45a2.43,2.43,0,0,1-.93,1.13,2.79,2.79,0,0,1-1.62.46,2.94,2.94,0,0,1-1.19-.24,3.08,3.08,0,0,1-1-.65,3,3,0,0,1-.64-1A2.94,2.94,0,0,1,124.33,24Zm0.51,0a2.46,2.46,0,0,0,1.53,2.31,2.61,2.61,0,0,0,2,0,2.57,2.57,0,0,0,.81-0.53,2.44,2.44,0,0,0,.54-0.8,2.48,2.48,0,0,0,.19-1,2.54,2.54,0,0,0-.19-1,2.42,2.42,0,0,0-.54-0.8,2.6,2.6,0,0,0-2.79-.53A2.42,2.42,0,0,0,125,23,2.54,2.54,0,0,0,124.85,24Z"/><path class="cls-2" d="M135.57,29.72H135q0.18-.37.31-0.7l0.26-.65,0.28-.7,0.36-.86q-0.69-1.39-1.29-2.83t-1.3-2.85h0.55q0.41,0.8.72,1.49T135.48,24L136,25.21q0.25,0.6.52,1.19,0.27-.59.53-1.19L137.58,24l0.58-1.34q0.31-.7.71-1.5h0.57Z"/><path class="cls-2" d="M144.5,26.23a3,3,0,0,1-1,.59,3.13,3.13,0,0,1-1.16.22,3,3,0,0,1-1.19-.24,3.15,3.15,0,0,1-1-.65,2.92,2.92,0,0,1-.65-1,3.07,3.07,0,0,1,0-2.36,3.15,3.15,0,0,1,.65-1,3,3,0,0,1,1-.65,2.9,2.9,0,0,1,1.18-.24,2.5,2.5,0,0,1,1.64.56A3.36,3.36,0,0,1,145,23l-1.17.46-1.29.52-1.3.53L140,25a2.48,2.48,0,0,0,.91,1.12,2.44,2.44,0,0,0,1.42.43,2.56,2.56,0,0,0,1-.18,2.42,2.42,0,0,0,.78-0.5Zm-0.13-3.4a2.29,2.29,0,0,0-.79-1,2.06,2.06,0,0,0-1.21-.36,2.4,2.4,0,0,0-1,.2,2.6,2.6,0,0,0-.8.54,2.5,2.5,0,0,0-.53.79,2.45,2.45,0,0,0-.19,1,2.11,2.11,0,0,0,0,.31q0,0.15.05,0.3l1.08-.44,1.15-.46,1.14-.46Z"/><path class="cls-2" d="M145.21,24a3,3,0,0,1,.24-1.19,3.06,3.06,0,0,1,1.62-1.62,3,3,0,0,1,2.37,0,3.06,3.06,0,0,1,1.62,1.62A3,3,0,0,1,151.3,24a2.91,2.91,0,0,1-.24,1.18,3,3,0,0,1-.65,1,3.16,3.16,0,0,1-1,.65,3,3,0,0,1-1.2.24,3,3,0,0,1-1.19-.23,3,3,0,0,1-1-.64,3.09,3.09,0,0,1-.65-1A2.94,2.94,0,0,1,145.21,24Zm0.52,0a2.52,2.52,0,0,0,3.49,2.31,2.59,2.59,0,0,0,.8-0.53,2.44,2.44,0,0,0,.54-0.8,2.57,2.57,0,0,0,0-2,2.52,2.52,0,0,0-1.34-1.34,2.57,2.57,0,0,0-2,0,2.43,2.43,0,0,0-.79.54,2.58,2.58,0,0,0-.53.8A2.48,2.48,0,0,0,145.74,24Z"/><path class="cls-2" d="M152.19,21.13h0.42s0,0.14,0,.29l0,0.48c0,0.17,0,.33,0,0.47s0,0.23,0,.26a2.78,2.78,0,0,1,.94-1.17,2.54,2.54,0,0,1,1.52-.45,1.85,1.85,0,0,1,1.27.43,1.67,1.67,0,0,1,.56,1.12,2.93,2.93,0,0,1,1-1.12,2.51,2.51,0,0,1,1.47-.43,1.83,1.83,0,0,1,1.34.48,1.78,1.78,0,0,1,.52,1.24v4.2h-0.53V22.82a1.41,1.41,0,0,0-.37-0.9,1.39,1.39,0,0,0-1-.41,2.54,2.54,0,0,0-.9.16,2.44,2.44,0,0,0-.74.44,2.15,2.15,0,0,0-.52.66,2,2,0,0,0-.21.85v3.31h-0.51V22.82a1.35,1.35,0,0,0-1.38-1.31,2.55,2.55,0,0,0-.92.17,2.47,2.47,0,0,0-.75.45,2.07,2.07,0,0,0-.51.69,2,2,0,0,0-.19.87v3.24h-0.51V21.13Z"/><path class="cls-2" d="M162.06,24a3,3,0,0,1,.24-1.19,3.15,3.15,0,0,1,.65-1,3,3,0,0,1,1-.65,2.91,2.91,0,0,1,1.18-.24,2.83,2.83,0,0,1,.85.13,2.78,2.78,0,0,1,.73.35,2.86,2.86,0,0,1,.58.52,2.31,2.31,0,0,1,.38.62q0-.37,0-0.75t0-.74h0.45v5.81h-0.51V25.45a2.43,2.43,0,0,1-.93,1.13,2.79,2.79,0,0,1-1.62.46,2.94,2.94,0,0,1-1.19-.24,3.08,3.08,0,0,1-1-.65,3,3,0,0,1-.64-1A2.94,2.94,0,0,1,162.06,24Zm0.51,0a2.46,2.46,0,0,0,1.53,2.31,2.61,2.61,0,0,0,2,0,2.57,2.57,0,0,0,.81-0.53,2.44,2.44,0,0,0,.54-0.8,2.48,2.48,0,0,0,.19-1,2.54,2.54,0,0,0-.19-1,2.42,2.42,0,0,0-.54-0.8,2.6,2.6,0,0,0-2.79-.53A2.42,2.42,0,0,0,162.76,23,2.54,2.54,0,0,0,162.57,24Z"/><path class="cls-2" d="M169.48,21.13h0.44s0,0.14,0,.29,0,0.31,0,.48,0,0.33,0,.47,0,0.23,0,.26a2.7,2.7,0,0,1,1-1.17,2.65,2.65,0,0,1,1.53-.45,1.81,1.81,0,0,1,1.33.48,1.78,1.78,0,0,1,.52,1.24v4.2h-0.53V22.82a1.41,1.41,0,0,0-.37-0.9,1.39,1.39,0,0,0-1-.41,2.6,2.6,0,0,0-.93.17,2.44,2.44,0,0,0-.76.45,2.15,2.15,0,0,0-.52.69,2,2,0,0,0-.19.87v3.24h-0.51V21.13Z"/><path class="cls-2" d="M178.17,24a3.06,3.06,0,0,1,.87-2.15,2.92,2.92,0,0,1,1-.65,3,3,0,0,1,1.18-.23,2.86,2.86,0,0,1,.89.13,2.92,2.92,0,0,1,.74.36,2.7,2.7,0,0,1,.57.52,2.2,2.2,0,0,1,.36.61q0-.37,0-0.75t0-.74h0.46v5.81a3.42,3.42,0,0,1-.17,1.07,2.34,2.34,0,0,1-.52.89,2.52,2.52,0,0,1-.94.61,3.92,3.92,0,0,1-1.42.23,3.43,3.43,0,0,1-1.31-.25,4.5,4.5,0,0,1-1.34-.95l0.33-.36a4.17,4.17,0,0,0,.64.53,3.28,3.28,0,0,0,.59.31,2.77,2.77,0,0,0,.55.16,3.12,3.12,0,0,0,.53,0,3.54,3.54,0,0,0,1.19-.17,1.84,1.84,0,0,0,1.2-1.23,3.51,3.51,0,0,0,.15-1V26.21s0-.07,0-0.15,0-.17,0-0.25,0-.17,0-0.25,0-.13,0-0.15A2.76,2.76,0,0,1,181.17,27a3,3,0,0,1-1.18-.23,2.91,2.91,0,0,1-1-.65,3.06,3.06,0,0,1-.64-1A3,3,0,0,1,178.17,24Zm0.52,0a2.47,2.47,0,0,0,1.53,2.31,2.61,2.61,0,0,0,2,0A2.48,2.48,0,0,0,183.73,24a2.54,2.54,0,0,0-.19-1,2.43,2.43,0,0,0-1.34-1.33,2.61,2.61,0,0,0-2,0A2.43,2.43,0,0,0,178.89,23,2.54,2.54,0,0,0,178.69,24Z"/><path class="cls-2" d="M190.29,26.23a3,3,0,0,1-1,.59,3.13,3.13,0,0,1-1.16.22A3,3,0,0,1,187,26.8a3.15,3.15,0,0,1-1-.65,2.92,2.92,0,0,1-.65-1,3.07,3.07,0,0,1,0-2.36,3.15,3.15,0,0,1,.65-1,3,3,0,0,1,1-.65,2.9,2.9,0,0,1,1.18-.24,2.5,2.5,0,0,1,1.64.56,3.36,3.36,0,0,1,1,1.43l-1.17.46-1.29.52-1.3.53-1.22.49a2.48,2.48,0,0,0,.91,1.12,2.44,2.44,0,0,0,1.42.43,2.56,2.56,0,0,0,1-.18,2.42,2.42,0,0,0,.78-0.5Zm-0.13-3.4a2.29,2.29,0,0,0-.79-1,2.06,2.06,0,0,0-1.21-.36,2.4,2.4,0,0,0-1,.2,2.6,2.6,0,0,0-.8.54,2.5,2.5,0,0,0-.53.79,2.45,2.45,0,0,0-.19,1,2.11,2.11,0,0,0,0,.31q0,0.15.05,0.3l1.08-.44,1.15-.46,1.14-.46Z"/><path class="cls-2" d="M191.46,21.13h0.44s0,0.14,0,.29,0,0.31,0,.48,0,0.33,0,.47,0,0.23,0,.26a2.7,2.7,0,0,1,1-1.17,2.65,2.65,0,0,1,1.53-.45,1.81,1.81,0,0,1,1.33.48,1.78,1.78,0,0,1,.52,1.24v4.2h-0.53V22.82a1.41,1.41,0,0,0-.37-0.9,1.39,1.39,0,0,0-1-.41,2.6,2.6,0,0,0-.93.17,2.44,2.44,0,0,0-.76.45,2.15,2.15,0,0,0-.52.69,2,2,0,0,0-.19.87v3.24h-0.51V21.13Z"/><path class="cls-2" d="M202.24,26.23a3,3,0,0,1-1,.59,3.13,3.13,0,0,1-1.16.22,3,3,0,0,1-1.19-.24,3.15,3.15,0,0,1-1-.65,2.92,2.92,0,0,1-.65-1,3.07,3.07,0,0,1,0-2.36,3.15,3.15,0,0,1,.65-1,3,3,0,0,1,1-.65,2.9,2.9,0,0,1,1.18-.24,2.5,2.5,0,0,1,1.64.56,3.36,3.36,0,0,1,1,1.43l-1.17.46-1.29.52-1.3.53-1.22.49a2.48,2.48,0,0,0,.91,1.12,2.44,2.44,0,0,0,1.42.43,2.56,2.56,0,0,0,1-.18,2.42,2.42,0,0,0,.78-0.5Zm-0.13-3.4a2.29,2.29,0,0,0-.79-1,2.06,2.06,0,0,0-1.21-.36,2.4,2.4,0,0,0-1,.2,2.6,2.6,0,0,0-.8.54,2.5,2.5,0,0,0-.53.79,2.45,2.45,0,0,0-.19,1,2.11,2.11,0,0,0,0,.31q0,0.15.05,0.3l1.08-.44,1.15-.46,1.14-.46Z"/><path class="cls-2" d="M206.29,21.62a3,3,0,0,0-.89.17,2.4,2.4,0,0,0-.76.43,2.1,2.1,0,0,0-.52.66,1.84,1.84,0,0,0-.19.85v3.21h-0.51V21.13h0.44s0,0.14,0,.29,0,0.31,0,.48,0,0.33,0,.47,0,0.23,0,.26a2.65,2.65,0,0,1,1-1.18,2.86,2.86,0,0,1,1.46-.44Z"/><path class="cls-2" d="M205.95,24a3,3,0,0,1,.24-1.19,3.15,3.15,0,0,1,.65-1,3,3,0,0,1,1-.65A2.91,2.91,0,0,1,209,21a2.83,2.83,0,0,1,.85.13,2.78,2.78,0,0,1,.73.35,2.86,2.86,0,0,1,.58.52,2.31,2.31,0,0,1,.38.62q0-.37,0-0.75t0-.74H212v5.81h-0.51V25.45a2.43,2.43,0,0,1-.93,1.13A2.79,2.79,0,0,1,209,27a2.94,2.94,0,0,1-1.19-.24,3.08,3.08,0,0,1-1-.65,3,3,0,0,1-.64-1A2.94,2.94,0,0,1,205.95,24Zm0.51,0A2.46,2.46,0,0,0,208,26.33a2.61,2.61,0,0,0,2,0,2.57,2.57,0,0,0,.81-0.53,2.44,2.44,0,0,0,.54-0.8,2.48,2.48,0,0,0,.19-1,2.54,2.54,0,0,0-.19-1,2.42,2.42,0,0,0-.54-0.8A2.6,2.6,0,0,0,208,21.7,2.42,2.42,0,0,0,206.65,23,2.54,2.54,0,0,0,206.46,24Z"/><path class="cls-2" d="M213.82,18.58h0.52v2.64h1.83v0.46h-1.83v5.25h-0.52V21.68h-1.27V21.22h1.27V18.58Z"/><path class="cls-2" d="M216,24a3,3,0,0,1,.24-1.19,3.06,3.06,0,0,1,1.62-1.62,3,3,0,0,1,2.37,0,3.06,3.06,0,0,1,1.62,1.62A3,3,0,0,1,222.1,24a2.91,2.91,0,0,1-.24,1.18,3,3,0,0,1-.65,1,3.16,3.16,0,0,1-1,.65A3,3,0,0,1,219,27a3,3,0,0,1-1.19-.23,3,3,0,0,1-1-.64,3.09,3.09,0,0,1-.65-1A2.94,2.94,0,0,1,216,24Zm0.52,0A2.52,2.52,0,0,0,220,26.33a2.59,2.59,0,0,0,.8-0.53,2.44,2.44,0,0,0,.54-0.8,2.57,2.57,0,0,0,0-2A2.52,2.52,0,0,0,220,21.7a2.57,2.57,0,0,0-2,0,2.43,2.43,0,0,0-.79.54,2.58,2.58,0,0,0-.53.8A2.48,2.48,0,0,0,216.54,24Z"/><path class="cls-2" d="M225.87,21.62a3,3,0,0,0-.89.17,2.4,2.4,0,0,0-.76.43,2.1,2.1,0,0,0-.52.66,1.84,1.84,0,0,0-.19.85v3.21H223V21.13h0.44s0,0.14,0,.29,0,0.31,0,.48,0,0.33,0,.47,0,0.23,0,.26a2.65,2.65,0,0,1,1-1.18A2.86,2.86,0,0,1,226,21Z"/><path class="cls-1" d="M77.3,54.22c-0.49-.77-1-1.48-1.43-2.21L74.5,49.84l-1.38-2.2a6.64,6.64,0,0,0,1.61-1.3,6.72,6.72,0,0,0,1.09-1.66,8.26,8.26,0,0,0,.61-1.86,9.79,9.79,0,0,0,.19-1.93A8,8,0,0,0,76,37.7a6.54,6.54,0,0,0-1.72-2.38,7.38,7.38,0,0,0-2.7-1.3,11.54,11.54,0,0,0-3.52-.34H65.75v3h2.81a4.4,4.4,0,0,1,2.06.59,3.93,3.93,0,0,1,1.27,1.11,3.8,3.8,0,0,1,.64,1.34A5.25,5.25,0,0,1,72.7,41a4.91,4.91,0,0,1-.19,1.29,3.53,3.53,0,0,1-.68,1.29,3.69,3.69,0,0,1-1.29.86,4.48,4.48,0,0,1-2,.26H65.75v4H69c0.79,1,1.62,2.44,2.48,3.77a30.73,30.73,0,0,0,2.73,4.23h4.73C78.33,55.68,77.79,55,77.3,54.22Z"/></svg>