<svg id="Layer_1" data-name="Layer 1" xmlns="http://www.w3.org/2000/svg" viewBox="0 0 787.84 200.23"><defs><style>.cls-1{fill:#ff7f0b;}.cls-2{fill:#726860;}</style></defs><title>robonkey-logo</title><path class="cls-1" d="M116.84,0c-57,0-104,46.14-104,102.84v28h0.59c-4.53,0-8.36.73-10.78,4A11.88,11.88,0,0,0,.59,146l13.61,44.3,2,5.54H220.84v-93C220.84,46.14,173.84,0,116.84,0Zm93,185.87H23.54L10,141.77c-0.86-2.85,1.27-4.9,4.24-4.9H160.4c0.93,11,8.42,16.18,17.5,16.18a17.44,17.44,0,1,0,0-34.88c-9.32,0-16.45,7.34-17,16.5L23.84,128V102.84c0-51.62,41.59-94,93.21-94h0.35c51.62,0,92.44,42.35,92.44,94v83Zm-45.19-50a13.25,13.25,0,1,1,13.25,13.25A13.27,13.27,0,0,1,164.65,135.87Z"/><path class="cls-1" d="M177.91,147.17a11.29,11.29,0,1,0-11.29-11.29A11.31,11.31,0,0,0,177.91,147.17Zm0-15a3.71,3.71,0,1,1-3.71,3.71A3.71,3.71,0,0,1,177.91,132.17Z"/><path class="cls-1" d="M96.19,49.19A36.8,36.8,0,0,0,66.5,76.11a18.55,18.55,0,1,0,4.95,30,36.78,36.78,0,0,0,30.67,16.48A37,37,0,1,0,96.19,49.19Zm30.1,56.48a31.06,31.06,0,0,1-20.71,12.9,30.36,30.36,0,0,1-5.18.34,30.92,30.92,0,0,1-25.76-15.28L71.83,99,68,102.74a13.51,13.51,0,0,1-7.37,3.7,13,13,0,0,1-10.09-2.71,14.31,14.31,0,0,1-5.3-9.41,14.75,14.75,0,0,1,2.6-10.6,13.46,13.46,0,0,1,9-5.58A12.83,12.83,0,0,1,59,78a13.17,13.17,0,0,1,5.84,1.52L69.54,82,71,76.71c3.45-12.43,13.56-21.65,25.76-23.49a30.1,30.1,0,0,1,5.15-.33c15.44,0.33,28.22,12.24,30.38,28.31A34.06,34.06,0,0,1,126.28,105.67Z"/><path class="cls-1" d="M409.25,160.79a17.41,17.41,0,0,0-5.06-3.62,24.57,24.57,0,0,0-5.62-1.89,15.21,15.21,0,0,0,5.56-2.89,15.83,15.83,0,0,0,3.62-4.4,19.21,19.21,0,0,0,2-5.45,29.79,29.79,0,0,0,.61-6.06,23.52,23.52,0,0,0-1.84-9.73,16.21,16.21,0,0,0-5.29-6.56c-2.3-1.67-5.08-2.13-8.34-2.91s-6.9-.4-10.9-0.4H362.84v79h24.38a41.52,41.52,0,0,0,10.13-.94,24.87,24.87,0,0,0,8.62-3.75,20,20,0,0,0,6-6.77,20.58,20.58,0,0,0,2.28-10,20.81,20.81,0,0,0-1.39-7.94A17.52,17.52,0,0,0,409.25,160.79Zm-32.41-33.92h7.59a14.35,14.35,0,0,1,9,3c2.23,1.74,3.34,4.64,3.34,8.27a14.18,14.18,0,0,1-2.73,8.69,10.62,10.62,0,0,1-8.4,4h-8.82v-24Zm22.73,50.83a9.63,9.63,0,0,1-3.12,3.56c-1.33.93-2.89,2.52-4.67,3s-3.67,1.61-5.67,1.61h-9.26v-24h8a30.33,30.33,0,0,1,5.84.27,15.44,15.44,0,0,1,5.06,1.75,10.19,10.19,0,0,1,3.56,3.43,10,10,0,0,1,1.33,5.36A10.81,10.81,0,0,1,399.57,177.7Z"/><path class="cls-1" d="M566.84,164.4l-0.14,3.78-2.35-3.11c-0.52-.67-1.77-1.85-3.51-3.56s-4-3.76-6.57-6.17-5.48-5.08-8.6-8-6.32-5.9-9.58-8.9l-9.63-8.84q-4.73-4.34-8.63-8c-2.6-2.45-4.77-4.54-6.55-6.29s-3.44-2.95-3.44-3.62v84.2h14v-49.6l-0.56-3.56c0.37,0.52.7,1.09,1.22,1.73a7.5,7.5,0,0,1,.83,1.17,46.53,46.53,0,0,0,3.37,3.62c1.74,1.74,3.88,3.86,6.44,6.34s5.39,5.21,8.5,8.18,6.3,6,9.56,9.07,6.47,6.12,9.62,9.12l8.62,8.23c2.6,2.49,5.47,4.62,7.25,6.4s4.14,3,4.14,3.67V116.87h-14V164.4Z"/><path class="cls-1" d="M640,173.69q-4.12-5.51-8.29-11.18t-8.85-11.68c5.49-5.78,11-10.92,16.47-16.92s11-14,16.58-17H638.65c-5,3-9.89,9.18-14.52,14.37s-9.47,9.82-14.52,14.64a6.8,6.8,0,0,1-1.17,1.31,9.91,9.91,0,0,0-1.17,1.3c0.07-.67.26-1.38,0.34-2.05s0.23-1.35.23-1.94V116.87h-17v79h17V164.63c0-.74,1.48-1.47,2.22-2.17s1.46-1.5,2.28-2.39c2.52,3.26,4.88,6.4,7.15,9.4s4.49,6,6.72,8.9,4.44,5.59,6.67,8.56,4.63,5.95,7.22,8.95H657c-3-3-6-7.59-8.73-11.34S642.73,177.36,640,173.69Z"/><polygon class="cls-1" points="673.84 161.87 708.84 161.87 708.84 150.87 673.84 150.87 673.84 126.87 711.84 126.87 711.84 116.87 659.84 116.87 659.84 195.87 715.84 195.87 715.84 181.87 673.84 181.87 673.84 161.87"/><path class="cls-1" d="M772.38,116.87c-0.3,0-.85.81-1.67,2.41s-1.8,3.14-2.95,5.4-2.41,4.56-3.78,7.26-2.74,5.32-4.12,8-2.69,5.26-3.95,7.74-2.38,4.63-3.34,6.49c-0.22.52-.45,1.12-0.67,1.82a13.31,13.31,0,0,1-.78,1.94l-1.23-3.78q-1.45-2.78-3.34-6.51t-4-7.79l-4.23-8.12-3.89-7.46c-1.19-2.26-2.21-3.42-3.06-5s-1.43-2.41-1.73-2.41H714.19c0.37,0,1.3,1.4,2.78,4.19s3.3,5.74,5.45,9.63,4.41,7.86,6.79,12.27,4.64,8.47,6.79,12.36,3.27,7.18,4.76,10,2.09,4.38,2.09,4.9v25.68h14V170.19l31-53.32H772.38Z"/><path class="cls-1" d="M333.16,120.93a41.18,41.18,0,0,0-41.08,0,40.74,40.74,0,0,0-14.89,14.89,41.18,41.18,0,0,0,0,41.08,40.74,40.74,0,0,0,14.89,14.89,41.18,41.18,0,0,0,41.08,0,40.74,40.74,0,0,0,14.89-14.89,41.18,41.18,0,0,0,0-41.08A40.74,40.74,0,0,0,333.16,120.93Zm8.68,39.73a1.49,1.49,0,0,1-.32.87,1.18,1.18,0,0,1-.77.49l-7,1.06a24.35,24.35,0,0,1-1.48,3.46q1.33,1.9,4.07,5.25a1.47,1.47,0,0,1,.38,1,1.27,1.27,0,0,1-.34.87,38.66,38.66,0,0,1-3.76,4.11q-2.74,2.7-3.57,2.7a1.86,1.86,0,0,1-1-.34l-5.25-4.1a21.67,21.67,0,0,1-3.46,1.44,66.8,66.8,0,0,1-1.1,7.23,1.41,1.41,0,0,1-1.37,1.22H308.4a1.62,1.62,0,0,1-.93-0.48,1.29,1.29,0,0,1-.44-0.89l-1.06-7a23.51,23.51,0,0,1-3.42-1.43l-5.36,4.06a1.37,1.37,0,0,1-1,.34,1.31,1.31,0,0,1-.95-0.42,50.14,50.14,0,0,1-6.27-6.39,1.48,1.48,0,0,1-.27-0.87,1.47,1.47,0,0,1,.3-0.87q0.57-.8,1.94-2.53t2.05-2.68a18.81,18.81,0,0,1-1.56-3.76l-7-1a2,2,0,0,1-1.09-.48,1.93,1.93,0,0,1-.6-0.89v-8.44a2.09,2.09,0,0,1,.6-0.87,1.46,1.46,0,0,1,.87-0.49l7.14-1.06a19,19,0,0,1,1.52-3.5c-1-1.44-2.35-3.19-4-5.25a1.42,1.42,0,0,1-.37-0.91,1.61,1.61,0,0,1,.35-0.87,37.88,37.88,0,0,1,3.75-4.09q2.76-2.72,3.59-2.72a1.62,1.62,0,0,1,1,.38l5.25,4.07a21.7,21.7,0,0,1,3.46-1.44,66.7,66.7,0,0,1,1.1-7.22,1.41,1.41,0,0,1,1.37-1.22h8.44a1.61,1.61,0,0,1,.93.48,1.29,1.29,0,0,1,.44.89l1.06,7a23.53,23.53,0,0,1,3.42,1.43l5.4-4.06a1.23,1.23,0,0,1,.91-0.34,1.47,1.47,0,0,1,.95.38,52,52,0,0,1,6.27,6.46,1.23,1.23,0,0,1,.27.84,1.47,1.47,0,0,1-.3.87q-0.57.8-1.94,2.53t-2.05,2.68a22.89,22.89,0,0,1,1.56,3.72l7,1.06a1.23,1.23,0,0,1,.81.48,1.45,1.45,0,0,1,.32.89v8.44Z"/><path class="cls-1" d="M479.92,120.93a41.18,41.18,0,0,0-41.08,0,40.74,40.74,0,0,0-14.89,14.89,41.18,41.18,0,0,0,0,41.08,40.74,40.74,0,0,0,14.89,14.89,41.18,41.18,0,0,0,41.08,0,40.74,40.74,0,0,0,14.89-14.89,41.18,41.18,0,0,0,0-41.08A40.74,40.74,0,0,0,479.92,120.93Zm6.92,39.73c0,0.3.76,0.6,0.56,0.87s0,0.44-.33.49l-6.81,1.06a25.18,25.18,0,0,1-1.37,3.46c0.89,1.27,2.3,3,4.12,5.25a1.51,1.51,0,0,1,.41,1,1.25,1.25,0,0,1-.33.87,38.4,38.4,0,0,1-3.76,4.11q-2.74,2.7-3.57,2.7a1.85,1.85,0,0,1-1-.34l-5.24-4.1a21.67,21.67,0,0,1-3.46,1.44,66.82,66.82,0,0,1-1.1,7.23,1.41,1.41,0,0,1-1.37,1.22h-8.44a1.62,1.62,0,0,1-.93-0.48,1.29,1.29,0,0,1-.44-0.89l-1.06-7a23.51,23.51,0,0,1-3.42-1.43L444,180.09a1.37,1.37,0,0,1-1,.34,1.31,1.31,0,0,1-.95-0.42,50.14,50.14,0,0,1-6.27-6.39,1.48,1.48,0,0,1-.27-0.87,1.47,1.47,0,0,1,.3-0.87q0.57-.8,1.94-2.53t2.05-2.68a18.81,18.81,0,0,1-1.56-3.76l-7-1a5.79,5.79,0,0,1-2-.48c-0.2-.27-1.48-0.56-1.48-0.89v-8.44c0-.3,1.28-0.6,1.48-0.87a2.77,2.77,0,0,1,1.31-.49l7.36-1.06a19.69,19.69,0,0,1,1.63-3.5c-1-1.44-2.29-3.19-4-5.25a1.37,1.37,0,0,1-.34-0.91,1.64,1.64,0,0,1,.36-0.87A38.14,38.14,0,0,1,439.4,135q2.76-2.72,3.59-2.72a1.63,1.63,0,0,1,1,.38l5.25,4.07a21.7,21.7,0,0,1,3.46-1.44,66.69,66.69,0,0,1,1.1-7.22,1.41,1.41,0,0,1,1.37-1.22h8.44a1.61,1.61,0,0,1,.93.48,1.29,1.29,0,0,1,.44.89l1.06,7a23.53,23.53,0,0,1,3.42,1.43l5.4-4.06a1.23,1.23,0,0,1,.91-0.34,1.47,1.47,0,0,1,.95.38,52,52,0,0,1,6.27,6.46,1.23,1.23,0,0,1,.27.84,1.47,1.47,0,0,1-.3.87q-0.57.8-1.94,2.53T479,146.07a22.89,22.89,0,0,1,1.56,3.72l7,1.06c0.33,0.05-.27.21-0.07,0.48s-0.56.56-.56,0.89v8.44Z"/><path class="cls-2" d="M430.28,83.19a10.21,10.21,0,0,1,.83-4.1,10.89,10.89,0,0,1,2.23-3.35,10.45,10.45,0,0,1,3.3-2.26,10.06,10.06,0,0,1,4.08-.83,9.8,9.8,0,0,1,3,.44,9.62,9.62,0,0,1,2.54,1.22,9.91,9.91,0,0,1,2,1.79,8,8,0,0,1,1.32,2.15q0-1.3.05-2.6t0.16-2.54h1.56V93.21h-1.77V88.07A8.41,8.41,0,0,1,446.32,92a9.64,9.64,0,0,1-5.61,1.61,10.18,10.18,0,0,1-4.13-.83,10.67,10.67,0,0,1-3.3-2.23,10.32,10.32,0,0,1-2.21-3.3A10.17,10.17,0,0,1,430.28,83.19Zm1.77-.05a8.53,8.53,0,0,0,5.29,8,9,9,0,0,0,6.85,0,8.88,8.88,0,0,0,2.8-1.84,8.45,8.45,0,0,0,1.87-2.75,8.58,8.58,0,0,0,.67-3.4,8.78,8.78,0,0,0-.67-3.43A8.38,8.38,0,0,0,447,76.94a9,9,0,0,0-9.66-1.84,8.39,8.39,0,0,0-4.62,4.62A8.78,8.78,0,0,0,432,83.14Z"/><path class="cls-2" d="M469.16,102.86h-2q0.62-1.3,1.09-2.41t0.91-2.26q0.44-1.14,1-2.41t1.25-3Q469,88,466.93,83t-4.52-9.86h1.92q1.4,2.75,2.49,5.17t2,4.65q0.94,2.23,1.82,4.31t1.82,4.1q0.94-2,1.82-4.1L476.11,83q0.94-2.21,2-4.65t2.47-5.19h2Z"/><path class="cls-2" d="M500,90.77a10.5,10.5,0,0,1-3.3,2.05,10.83,10.83,0,0,1-4,.75,10.23,10.23,0,0,1-4.1-.83,10.91,10.91,0,0,1-3.35-2.23,10.11,10.11,0,0,1-2.23-3.3,10.63,10.63,0,0,1,0-8.18,10.91,10.91,0,0,1,2.23-3.35,10.45,10.45,0,0,1,3.3-2.26,10,10,0,0,1,4.08-.83,8.66,8.66,0,0,1,5.68,1.95,11.64,11.64,0,0,1,3.5,5q-1.87.73-4,1.61l-4.46,1.82-4.52,1.84-4.21,1.69a8.57,8.57,0,0,0,3.14,3.87,8.45,8.45,0,0,0,4.91,1.48,8.86,8.86,0,0,0,3.32-.62,8.36,8.36,0,0,0,2.7-1.71ZM499.58,79a7.92,7.92,0,0,0-2.73-3.32,7.13,7.13,0,0,0-4.18-1.25,8.31,8.31,0,0,0-3.4.7A9,9,0,0,0,486.52,77a8.66,8.66,0,0,0-1.84,2.75,8.47,8.47,0,0,0-.67,3.35,7.29,7.29,0,0,0,.08,1.09q0.08,0.52.18,1L488,83.68l4-1.61,3.95-1.58Q497.86,79.71,499.58,79Z"/><path class="cls-2" d="M502.54,83.14a10.21,10.21,0,0,1,.83-4.1,10.59,10.59,0,0,1,5.61-5.6,10.53,10.53,0,0,1,8.2,0,10.59,10.59,0,0,1,5.61,5.6,10.24,10.24,0,0,1,.83,4.1,10.06,10.06,0,0,1-.83,4.08,10.46,10.46,0,0,1-2.26,3.3,10.92,10.92,0,0,1-3.35,2.23,10.37,10.37,0,0,1-4.15.83,10.52,10.52,0,0,1-4.1-.8,10.22,10.22,0,0,1-3.32-2.21,10.68,10.68,0,0,1-2.23-3.3A10.16,10.16,0,0,1,502.54,83.14Zm1.82,0a8.71,8.71,0,0,0,12.07,8,9,9,0,0,0,2.78-1.84,8.45,8.45,0,0,0,1.87-2.75,8.91,8.91,0,0,0,0-6.8,8.72,8.72,0,0,0-4.65-4.65,8.89,8.89,0,0,0-6.8,0A8.42,8.42,0,0,0,506.87,77,8.94,8.94,0,0,0,505,79.74,8.59,8.59,0,0,0,504.35,83.14Z"/><path class="cls-2" d="M526.67,73.12h1.45c0,0.14,0,.47,0,1s0,1.07.05,1.66,0,1.13.05,1.64,0,0.8,0,.91a9.62,9.62,0,0,1,3.27-4,8.78,8.78,0,0,1,5.24-1.56,6.41,6.41,0,0,1,4.39,1.48,5.79,5.79,0,0,1,1.95,3.87,10.16,10.16,0,0,1,3.32-3.87,8.68,8.68,0,0,1,5.09-1.48,6.33,6.33,0,0,1,4.65,1.66A6.15,6.15,0,0,1,558,78.67V93.21h-1.82V79a4.87,4.87,0,0,0-1.3-3.11,4.81,4.81,0,0,0-3.48-1.4,8.79,8.79,0,0,0-3.11.55,8.43,8.43,0,0,0-2.57,1.51,7.45,7.45,0,0,0-1.79,2.28,6.88,6.88,0,0,0-.73,2.93V93.21h-1.76V79a4.66,4.66,0,0,0-4.78-4.52,8.81,8.81,0,0,0-3.19.57,8.56,8.56,0,0,0-2.6,1.56A7.16,7.16,0,0,0,529.09,79a7.08,7.08,0,0,0-.65,3V93.21h-1.77V73.12Z"/><path class="cls-2" d="M560.83,83.19a10.21,10.21,0,0,1,.83-4.1,10.89,10.89,0,0,1,2.23-3.35,10.45,10.45,0,0,1,3.3-2.26,10.06,10.06,0,0,1,4.08-.83,9.8,9.8,0,0,1,3,.44,9.62,9.62,0,0,1,2.54,1.22,9.91,9.91,0,0,1,2,1.79,8,8,0,0,1,1.32,2.15q0-1.3.05-2.6t0.16-2.54h1.56V93.21h-1.77V88.07A8.41,8.41,0,0,1,576.87,92a9.64,9.64,0,0,1-5.61,1.61,10.18,10.18,0,0,1-4.13-.83,10.67,10.67,0,0,1-3.3-2.23,10.32,10.32,0,0,1-2.21-3.3A10.17,10.17,0,0,1,560.83,83.19Zm1.77-.05a8.53,8.53,0,0,0,5.29,8,9,9,0,0,0,6.85,0,8.88,8.88,0,0,0,2.8-1.84,8.45,8.45,0,0,0,1.87-2.75,8.58,8.58,0,0,0,.67-3.4,8.78,8.78,0,0,0-.67-3.43,8.38,8.38,0,0,0-1.87-2.78,9,9,0,0,0-9.66-1.84,8.39,8.39,0,0,0-4.62,4.62A8.78,8.78,0,0,0,562.59,83.14Z"/><path class="cls-2" d="M586.52,73.12H588c0,0.14,0,.47,0,1s0,1.07,0,1.66,0,1.13,0,1.64,0,0.8,0,.91a9.35,9.35,0,0,1,3.37-4,9.17,9.17,0,0,1,5.29-1.56,6.26,6.26,0,0,1,4.59,1.66,6.15,6.15,0,0,1,1.79,4.31V93.21h-1.82V79a4.87,4.87,0,0,0-1.3-3.11,4.81,4.81,0,0,0-3.48-1.4,9,9,0,0,0-3.22.57,8.45,8.45,0,0,0-2.62,1.56A7.45,7.45,0,0,0,589,79a6.85,6.85,0,0,0-.67,3V93.21h-1.77V73.12Z"/><path class="cls-2" d="M616.58,83.14a10.59,10.59,0,0,1,3-7.45,10.11,10.11,0,0,1,3.3-2.23,10.34,10.34,0,0,1,4.08-.8,9.9,9.9,0,0,1,3.09.47,10.1,10.1,0,0,1,2.57,1.25,9.33,9.33,0,0,1,2,1.79,7.62,7.62,0,0,1,1.25,2.1q0-1.3.08-2.6T636,73.12h1.61V93.21a11.83,11.83,0,0,1-.57,3.71,8.09,8.09,0,0,1-1.82,3.06,8.73,8.73,0,0,1-3.24,2.1,13.58,13.58,0,0,1-4.91.78,11.87,11.87,0,0,1-4.54-.88,15.57,15.57,0,0,1-4.65-3.27l1.14-1.25a14.43,14.43,0,0,0,2.21,1.84,11.36,11.36,0,0,0,2,1.09,9.59,9.59,0,0,0,1.9.54,10.78,10.78,0,0,0,1.84.16,12.25,12.25,0,0,0,4.1-.6,6.37,6.37,0,0,0,4.15-4.26,12.13,12.13,0,0,0,.52-3.3V90.72c0-.07,0-0.24,0-0.52s0-.57,0-0.88,0-.6,0-0.88,0-.45,0-0.52a9.55,9.55,0,0,1-9,5.66,10.34,10.34,0,0,1-4.08-.8,10.08,10.08,0,0,1-3.3-2.23,10.59,10.59,0,0,1-2.21-3.32A10.31,10.31,0,0,1,616.58,83.14Zm1.82,0a8.53,8.53,0,0,0,5.29,8,9,9,0,0,0,6.85,0,8.58,8.58,0,0,0,5.3-8,8.81,8.81,0,0,0-.67-3.43,8.4,8.4,0,0,0-4.62-4.62,9,9,0,0,0-6.85,0,8.41,8.41,0,0,0-4.62,4.62A8.78,8.78,0,0,0,618.4,83.14Z"/><path class="cls-2" d="M658.52,90.77a10.5,10.5,0,0,1-3.3,2.05,10.83,10.83,0,0,1-4,.75,10.23,10.23,0,0,1-4.1-.83,10.91,10.91,0,0,1-3.35-2.23,10.11,10.11,0,0,1-2.23-3.3,10.63,10.63,0,0,1,0-8.18,10.91,10.91,0,0,1,2.23-3.35,10.45,10.45,0,0,1,3.3-2.26,10,10,0,0,1,4.08-.83,8.66,8.66,0,0,1,5.68,1.95,11.64,11.64,0,0,1,3.5,5q-1.87.73-4,1.61l-4.46,1.82-4.52,1.84-4.21,1.69a8.57,8.57,0,0,0,3.14,3.87,8.45,8.45,0,0,0,4.91,1.48,8.86,8.86,0,0,0,3.32-.62,8.36,8.36,0,0,0,2.7-1.71ZM658.05,79a7.92,7.92,0,0,0-2.73-3.32,7.13,7.13,0,0,0-4.18-1.25,8.31,8.31,0,0,0-3.4.7A9,9,0,0,0,645,77a8.66,8.66,0,0,0-1.84,2.75,8.47,8.47,0,0,0-.67,3.35,7.29,7.29,0,0,0,.08,1.09q0.08,0.52.18,1l3.74-1.53,4-1.61,3.95-1.58Q656.34,79.71,658.05,79Z"/><path class="cls-2" d="M662.57,73.12h1.51c0,0.14,0,.47,0,1s0,1.07,0,1.66,0,1.13,0,1.64,0,0.8,0,.91a9.35,9.35,0,0,1,3.37-4,9.17,9.17,0,0,1,5.29-1.56,6.26,6.26,0,0,1,4.59,1.66,6.15,6.15,0,0,1,1.79,4.31V93.21h-1.82V79a4.87,4.87,0,0,0-1.3-3.11,4.81,4.81,0,0,0-3.48-1.4,9,9,0,0,0-3.22.57,8.45,8.45,0,0,0-2.62,1.56A7.45,7.45,0,0,0,665,79a6.85,6.85,0,0,0-.67,3V93.21h-1.77V73.12Z"/><path class="cls-2" d="M699.89,90.77a10.5,10.5,0,0,1-3.3,2.05,10.83,10.83,0,0,1-4,.75,10.23,10.23,0,0,1-4.1-.83,10.91,10.91,0,0,1-3.35-2.23,10.11,10.11,0,0,1-2.23-3.3,10.63,10.63,0,0,1,0-8.18,10.91,10.91,0,0,1,2.23-3.35,10.45,10.45,0,0,1,3.3-2.26,10,10,0,0,1,4.08-.83,8.66,8.66,0,0,1,5.68,1.95,11.64,11.64,0,0,1,3.5,5q-1.87.73-4,1.61l-4.46,1.82-4.52,1.84-4.21,1.69a8.57,8.57,0,0,0,3.14,3.87,8.45,8.45,0,0,0,4.91,1.48,8.86,8.86,0,0,0,3.32-.62,8.36,8.36,0,0,0,2.7-1.71ZM699.42,79a7.92,7.92,0,0,0-2.73-3.32,7.13,7.13,0,0,0-4.18-1.25,8.31,8.31,0,0,0-3.4.7A9,9,0,0,0,686.37,77a8.66,8.66,0,0,0-1.84,2.75,8.47,8.47,0,0,0-.67,3.35,7.29,7.29,0,0,0,.08,1.09q0.08,0.52.18,1l3.74-1.53,4-1.61,3.95-1.58Q697.71,79.71,699.42,79Z"/><path class="cls-2" d="M713.91,74.83a10.34,10.34,0,0,0-3.09.57,8.32,8.32,0,0,0-2.62,1.48,7.28,7.28,0,0,0-1.82,2.28,6.37,6.37,0,0,0-.67,2.93V93.21h-1.77V73.12h1.51c0,0.14,0,.47,0,1s0,1.07,0,1.66,0,1.13,0,1.64,0,0.8,0,.91a9.17,9.17,0,0,1,3.61-4.07,9.91,9.91,0,0,1,5.06-1.53Z"/><path class="cls-2" d="M712.71,83.19a10.21,10.21,0,0,1,.83-4.1,10.89,10.89,0,0,1,2.23-3.35,10.45,10.45,0,0,1,3.3-2.26,10.06,10.06,0,0,1,4.08-.83,9.8,9.8,0,0,1,3,.44,9.62,9.62,0,0,1,2.54,1.22,9.91,9.91,0,0,1,2,1.79A8,8,0,0,1,732,78.26q0-1.3.05-2.6t0.16-2.54h1.56V93.21H732V88.07A8.41,8.41,0,0,1,728.75,92a9.64,9.64,0,0,1-5.61,1.61,10.18,10.18,0,0,1-4.13-.83,10.67,10.67,0,0,1-3.3-2.23,10.32,10.32,0,0,1-2.21-3.3A10.17,10.17,0,0,1,712.71,83.19Zm1.77-.05a8.53,8.53,0,0,0,5.29,8,9,9,0,0,0,6.85,0,8.88,8.88,0,0,0,2.8-1.84,8.45,8.45,0,0,0,1.87-2.75,8.58,8.58,0,0,0,.67-3.4,8.78,8.78,0,0,0-.67-3.43,8.38,8.38,0,0,0-1.87-2.78,9,9,0,0,0-9.66-1.84,8.39,8.39,0,0,0-4.62,4.62A8.78,8.78,0,0,0,714.48,83.14Z"/><path class="cls-2" d="M740,64.3h1.82v9.14h6.33V75h-6.33V93.21H740V75h-4.41V73.43H740V64.3Z"/><path class="cls-2" d="M747.54,83.14a10.21,10.21,0,0,1,.83-4.1,10.59,10.59,0,0,1,5.61-5.6,10.53,10.53,0,0,1,8.2,0,10.59,10.59,0,0,1,5.61,5.6,10.24,10.24,0,0,1,.83,4.1,10.06,10.06,0,0,1-.83,4.08,10.46,10.46,0,0,1-2.26,3.3,10.92,10.92,0,0,1-3.35,2.23,10.37,10.37,0,0,1-4.15.83,10.52,10.52,0,0,1-4.1-.8,10.22,10.22,0,0,1-3.32-2.21,10.68,10.68,0,0,1-2.23-3.3A10.16,10.16,0,0,1,747.54,83.14Zm1.82,0a8.71,8.71,0,0,0,12.07,8,9,9,0,0,0,2.78-1.84,8.45,8.45,0,0,0,1.87-2.75,8.91,8.91,0,0,0,0-6.8,8.72,8.72,0,0,0-4.65-4.65,8.89,8.89,0,0,0-6.8,0A8.42,8.42,0,0,0,751.88,77,8.94,8.94,0,0,0,750,79.74,8.59,8.59,0,0,0,749.36,83.14Z"/><path class="cls-2" d="M781.65,74.83a10.34,10.34,0,0,0-3.09.57,8.32,8.32,0,0,0-2.62,1.48,7.28,7.28,0,0,0-1.82,2.28,6.37,6.37,0,0,0-.67,2.93V93.21h-1.77V73.12h1.51c0,0.14,0,.47,0,1s0,1.07,0,1.66,0,1.13,0,1.64,0,0.8,0,.91a9.17,9.17,0,0,1,3.61-4.07A9.91,9.91,0,0,1,782,72.71Z"/><path class="cls-1" d="M267.51,187.48c-1.71-2.67-3.36-5.05-5-7.57s-3.17-5-4.73-7.47l-4.78-7.6a22.94,22.94,0,0,0,5.56-4.5,23.23,23.23,0,0,0,3.78-5.73,28.56,28.56,0,0,0,2.11-6.45,33.86,33.86,0,0,0,.67-6.67,27.52,27.52,0,0,0-2.11-11,22.64,22.64,0,0,0-6-8.23c-2.56-2.22-5.67-3.17-9.35-4.35s-7.73-1-12.18-1h-7.74v10h9.41a15.24,15.24,0,0,1,7.12,2.08,13.65,13.65,0,0,1,4.4,3.88,13.21,13.21,0,0,1,2.23,4.66,18.21,18.21,0,0,1,.61,4.36,17,17,0,0,1-.67,4.47,12.24,12.24,0,0,1-2.34,4.45,13,13,0,0,1-4.45,3.08c-1.85,1-4.19,1-7,1h-9.3v14h10.85c2.74,3,5.6,8.09,8.57,12.72s6.12,11.28,9.46,14.28h16.36C271.07,192.87,269.21,190.15,267.51,187.48Z"/></svg>